<svg width="25" height="25" viewBox="0 0 25 25" fill="none" xmlns="http://www.w3.org/2000/svg">
<path d="M7.13726 10.0567C7.73676 10.0567 8.22276 9.57075 8.22276 8.97124C8.22276 8.37174 7.73676 7.88574 7.13726 7.88574C6.53775 7.88574 6.05176 8.37174 6.05176 8.97124C6.05176 9.57075 6.53775 10.0567 7.13726 10.0567Z" fill="#FFC616"/>
<path d="M16.4486 6.07442C17.6591 6.07442 18.6403 5.09314 18.6403 3.88267C18.6403 2.6722 17.6591 1.69092 16.4486 1.69092C15.2381 1.69092 14.2568 2.6722 14.2568 3.88267C14.2568 5.09314 15.2381 6.07442 16.4486 6.07442Z" fill="#FFC616"/>
<path d="M11.928 5.94959C12.6832 5.94959 13.2953 5.33745 13.2953 4.58234C13.2953 3.82723 12.6832 3.21509 11.928 3.21509C11.1729 3.21509 10.5608 3.82723 10.5608 4.58234C10.5608 5.33745 11.1729 5.94959 11.928 5.94959Z" fill="#FFC616"/>
<path d="M18.2258 18.5108C17.8889 17.9701 17.6998 17.3504 17.6774 16.7137C17.6551 16.077 17.8002 15.4456 18.0983 14.8826L18.0898 14.8698C18.6511 14.0295 18.9501 13.0413 18.9488 12.0308C18.9488 9.1993 16.6533 6.90405 13.8221 6.90405C10.9908 6.90405 8.69531 9.1993 8.69531 12.0308C8.69531 12.5838 8.78531 13.1153 8.94756 13.6146C9.05493 14.0561 9.22928 14.4786 9.46456 14.8673L9.44056 14.8811L13.1541 21.3133C13.5461 22.4733 14.6408 23.3093 15.9328 23.3093C17.5538 23.3093 18.8686 21.9953 18.8686 20.3741C18.8686 19.6708 18.6206 19.0256 18.2078 18.5201L18.2258 18.5108Z" fill="#FFC616"/>
<path d="M9.04033 7.75865C9.63984 7.75865 10.1258 7.27265 10.1258 6.67315C10.1258 6.07364 9.63984 5.58765 9.04033 5.58765C8.44083 5.58765 7.95483 6.07364 7.95483 6.67315C7.95483 7.27265 8.44083 7.75865 9.04033 7.75865Z" fill="#FFC616"/>
</svg>
