<svg width="48" height="48" viewBox="0 0 48 48" fill="none" xmlns="http://www.w3.org/2000/svg">
<path d="M9.00026 34.5399C8.71626 34.5399 8.47892 34.4432 8.28826 34.2499C8.09759 34.0566 8.00159 33.8186 8.00026 33.5359C7.99892 33.2532 8.09492 33.0159 8.28826 32.8239C8.48159 32.6319 8.71892 32.5366 9.00026 32.5379H39.0003C39.2843 32.5379 39.5216 32.6339 39.7123 32.8259C39.9043 33.0179 40.0003 33.2559 40.0003 33.5399C40.0003 33.8239 39.9043 34.0612 39.7123 34.2519C39.5203 34.4426 39.2829 34.5379 39.0003 34.5379L9.00026 34.5399ZM9.00026 24.9999C8.71626 24.9999 8.47892 24.9039 8.28826 24.7119C8.09759 24.5199 8.00159 24.2819 8.00026 23.9979C7.99892 23.7139 8.09492 23.4766 8.28826 23.2859C8.48159 23.0952 8.71892 22.9999 9.00026 22.9999H39.0003C39.2843 22.9999 39.5216 23.0959 39.7123 23.2879C39.9029 23.4799 39.9989 23.7179 40.0003 24.0019C40.0016 24.2859 39.9056 24.5232 39.7123 24.7139C39.5189 24.9046 39.2816 24.9999 39.0003 24.9999H9.00026ZM9.00026 15.4599C8.71626 15.4599 8.47892 15.3646 8.28826 15.1739C8.09626 14.9819 8.00026 14.7439 8.00026 14.4599C8.00026 14.1759 8.09626 13.9386 8.28826 13.7479C8.48026 13.5572 8.71759 13.4619 9.00026 13.4619H39.0003C39.2843 13.4619 39.5216 13.5579 39.7123 13.7499C39.9029 13.9419 39.9989 14.1786 40.0003 14.4599C40.0016 14.7412 39.9056 14.9786 39.7123 15.1719C39.5189 15.3652 39.2816 15.4612 39.0003 15.4599H9.00026Z" fill="black"/>
</svg>
