<svg width="25" height="25" viewBox="0 0 25 25" fill="none" xmlns="http://www.w3.org/2000/svg">
<path d="M14.5 20.4615C14.5 20.992 14.2893 21.5007 13.9142 21.8758C13.5391 22.2508 13.0304 22.4615 12.5 22.4615H11.5C10.9696 22.4615 10.4609 22.2508 10.0858 21.8758C9.71071 21.5007 9.5 20.992 9.5 20.4615H10.5C10.5 20.7268 10.6054 20.9811 10.7929 21.1687C10.9804 21.3562 11.2348 21.4615 11.5 21.4615H12.5C12.7652 21.4615 13.0196 21.3562 13.2071 21.1687C13.3946 20.9811 13.5 20.7268 13.5 20.4615H14.5ZM15.5 17.4615C15.5 17.992 15.2893 18.5007 14.9142 18.8758C14.5391 19.2508 14.0304 19.4615 13.5 19.4615H10.5C9.96957 19.4615 9.46086 19.2508 9.08579 18.8758C8.71071 18.5007 8.5 17.992 8.5 17.4615V15.4615C6.7 14.2815 5.5 12.2615 5.5 9.96155C5.5 8.23764 6.18482 6.58434 7.40381 5.36535C8.62279 4.14637 10.2761 3.46155 12 3.46155C13.7239 3.46155 15.3772 4.14637 16.5962 5.36535C17.8152 6.58434 18.5 8.23764 18.5 9.96155C18.5 12.2615 17.3 14.2815 15.5 15.4615V17.4615ZM9.5 17.4615C9.5 17.7268 9.60536 17.9811 9.79289 18.1687C9.98043 18.3562 10.2348 18.4615 10.5 18.4615H13.5C13.7652 18.4615 14.0196 18.3562 14.2071 18.1687C14.3946 17.9811 14.5 17.7268 14.5 17.4615V14.8615C16.28 13.9615 17.5 12.1015 17.5 9.96155C17.5 8.50286 16.9205 7.10391 15.8891 6.07246C14.8576 5.04101 13.4587 4.46155 12 4.46155C10.5413 4.46155 9.14236 5.04101 8.11091 6.07246C7.07946 7.10391 6.5 8.50286 6.5 9.96155C6.5 12.1015 7.72 13.9615 9.5 14.8615V17.4615Z" fill="black"/>
</svg>
