<svg width="43" height="31" viewBox="0 0 43 31" fill="none" xmlns="http://www.w3.org/2000/svg">
<path d="M0 11.9039C1.57625 13.2239 5.15853 12.8452 7.16906 12.2251C6.90953 12.5008 6.66538 12.7703 6.43822 13.0317C4.69947 13.2061 0.552969 16.6993 0.494781 19.3473C2.95369 19.2607 5.88425 15.468 6.60894 13.7007C6.98753 13.2498 7.43106 12.7642 7.92228 12.2585C6.87063 14.1032 6.053 17.8513 7.17803 19.5974C8.58028 17.7297 9.16878 12.3146 8.88494 11.301C9.28313 10.9171 9.68732 10.5395 10.0973 10.1682C9.35094 11.9136 8.96928 15.0892 10.0607 16.4811C11.3281 14.7791 11.4578 10.5804 11.0673 9.30794C11.209 9.18499 11.3515 9.06256 11.4946 8.94066C11.5041 8.84704 11.5253 8.75022 11.561 8.65019C11.7018 8.25563 12.0351 8.012 12.3906 7.93394C12.5092 7.90791 12.6307 7.89688 12.7532 7.89794C13.3346 7.42963 13.9153 6.98004 14.4812 6.56194L14.147 6.10957C13.4347 6.63579 12.7014 7.20794 11.9731 7.80419C10.6747 6.80816 6.57034 5.68501 5.11234 6.08179C6.10481 7.70785 9.47538 8.39247 11.2841 8.37669C10.9505 8.6582 10.62 8.9433 10.2926 9.23194C8.99175 8.25351 3.87281 7.88554 1.99956 9.02476C3.55884 10.5949 7.61231 10.4184 9.55156 9.89588C9.03975 10.3628 8.54703 10.8296 8.08491 11.2873C6.46059 10.5953 1.64522 10.4536 0 11.9039ZM11.7811 9.97922C11.8315 10.3787 11.8827 10.7979 11.9172 11.2196C12.4889 11.598 13.3674 11.7389 13.5069 11.3177C13.5473 11.1957 13.5132 11.0103 13.3765 10.7971C13.2977 10.6742 13.1875 10.5491 13.0601 10.4344C12.6522 10.3613 12.2529 10.1935 11.9588 9.94994C11.8935 9.95241 11.8346 9.96126 11.7811 9.97926V9.97922ZM11.9536 12.3979C12.1756 13.3258 12.5774 14.157 13.1958 14.6113C13.2529 13.9483 13.2608 13.0625 13.2239 12.1525C12.8323 12.2108 12.3682 12.109 11.955 11.9026C11.9592 12.0699 11.9595 12.2356 11.9536 12.3979ZM12.0532 9.02663C12.0202 9.92154 14.2123 10.1836 14.2792 9.48363C14.2914 9.35566 14.2169 9.18254 14.0361 9.00513C13.8554 8.82769 13.5829 8.66357 13.2997 8.56526C13.0165 8.46694 12.7239 8.43669 12.5112 8.48338C12.2984 8.5301 12.1689 8.62019 12.0907 8.83932C12.0674 8.90447 12.0554 8.96694 12.0532 9.0266V9.02663Z" fill="black"/>
<path d="M13.856 24.528V1.104L15.104 1.2V24.528C15.104 26.192 15.408 27.424 16.016 28.224C16.624 29.024 17.584 29.424 18.896 29.424C18.96 29.424 18.992 29.52 18.992 29.712C18.992 29.904 18.96 30 18.896 30C18.224 30 17.536 29.984 16.832 29.952C16.16 29.92 15.392 29.904 14.528 29.904C13.696 29.904 12.88 29.92 12.08 29.952C11.28 29.984 10.528 30 9.824 30C9.76 30 9.728 29.904 9.728 29.712C9.728 29.52 9.76 29.424 9.824 29.424C11.232 29.424 12.256 29.024 12.896 28.224C13.536 27.424 13.856 26.192 13.856 24.528ZM38.144 30.624C38.144 30.688 38.064 30.72 37.904 30.72C37.776 30.752 37.68 30.752 37.616 30.72L15.008 3.936C13.888 2.624 12.912 1.744 12.08 1.296C11.28 0.815998 10.48 0.575998 9.68 0.575998C9.616 0.575998 9.584 0.479999 9.584 0.287999C9.584 0.0959997 9.616 0 9.68 0C10.288 0 10.896 0.0159998 11.504 0.0479994C12.112 0.079999 12.672 0.0959988 13.184 0.0959988C13.952 0.0959988 14.656 0.079999 15.296 0.0479994C15.936 0.0159998 16.416 0 16.736 0C17.152 0 17.456 0.191999 17.648 0.575998C17.84 0.927998 18.304 1.568 19.04 2.496L37.76 25.056L38.144 30.624ZM38.144 5.52V30.624L36.944 29.136V5.52C36.944 3.856 36.64 2.624 36.032 1.824C35.456 0.991999 34.512 0.575998 33.2 0.575998C33.136 0.575998 33.104 0.479999 33.104 0.287999C33.104 0.0959997 33.136 0 33.2 0C33.872 0 34.56 0.0319996 35.264 0.0959988C35.968 0.127998 36.736 0.143998 37.568 0.143998C38.368 0.143998 39.152 0.127998 39.92 0.0959988C40.688 0.0319996 41.408 0 42.08 0C42.144 0 42.176 0.0959997 42.176 0.287999C42.176 0.479999 42.144 0.575998 42.08 0.575998C40.736 0.575998 39.744 0.991999 39.104 1.824C38.464 2.624 38.144 3.856 38.144 5.52Z" fill="black"/>
</svg>
