<svg width="108" height="77" viewBox="0 0 108 77" fill="none" xmlns="http://www.w3.org/2000/svg">
<path d="M0 29.7598C3.94062 33.0598 12.8963 32.1129 17.9227 30.5628C17.2738 31.252 16.6634 31.9257 16.0955 32.5793C11.7487 33.0153 1.38242 41.7483 1.23695 48.3682C7.38422 48.1517 14.7106 38.67 16.5223 34.2517C17.4688 33.1245 18.5777 31.9104 19.8057 30.6463C17.1766 35.2581 15.1325 44.6284 17.9451 48.9935C21.4507 44.3243 22.922 30.7866 22.2123 28.2526C23.2078 27.2928 24.2183 26.3487 25.2434 25.4206C23.3773 29.7841 22.4232 37.7231 25.1518 41.2027C28.3202 36.9477 28.6446 26.4511 27.6682 23.2699C28.0225 22.9625 28.3786 22.6564 28.7366 22.3517C28.7602 22.1176 28.8131 21.8756 28.9024 21.6255C29.2545 20.6391 30.0877 20.03 30.9764 19.8349C31.273 19.7698 31.5768 19.7422 31.883 19.7449C33.3366 18.5741 34.7884 17.4501 36.2031 16.4049L35.3674 15.2739C33.5868 16.5895 31.7536 18.0199 29.9327 19.5105C26.6866 17.0204 16.4259 14.2125 12.7809 15.2045C15.262 19.2696 23.6884 20.9812 28.2102 20.9417C27.3763 21.6455 26.55 22.3583 25.7315 23.0799C22.4794 20.6338 9.68203 19.7138 4.99891 22.5619C8.89711 26.4873 19.0308 26.046 23.8789 24.7397C22.5994 25.907 21.3676 27.074 20.2123 28.2182C16.1515 26.4883 4.11305 26.1341 0 29.7598ZM29.4528 24.9481C29.5788 25.9467 29.7068 26.9948 29.793 28.049C31.2223 28.995 33.4186 29.3473 33.7673 28.2943C33.8682 27.9892 33.783 27.5258 33.4413 26.9927C33.2442 26.6854 32.9688 26.3727 32.6503 26.0861C31.6305 25.9033 30.6323 25.4838 29.897 24.8749C29.7337 24.881 29.5865 24.9031 29.4528 24.9481V24.9481ZM29.8841 30.9947C30.4389 33.3146 31.4436 35.3925 32.9895 36.5283C33.1322 34.8706 33.1521 32.6563 33.0597 30.3812C32.0808 30.5269 30.9205 30.2724 29.8875 29.7566C29.898 30.1749 29.8987 30.589 29.8841 30.9947ZM30.1329 22.5666C30.0504 24.8038 35.5308 25.4591 35.6979 23.7091C35.7284 23.3892 35.5422 22.9563 35.0903 22.5128C34.6384 22.0692 33.9573 21.6589 33.2492 21.4131C32.5412 21.1674 31.8098 21.0917 31.2779 21.2085C30.7461 21.3252 30.4222 21.5505 30.2267 22.0983C30.1686 22.2612 30.1384 22.4174 30.1329 22.5665V22.5666Z" fill="#1ABACC"/>
<path d="M34.64 61.32V2.75999L37.76 3V61.32C37.76 65.48 38.52 68.56 40.04 70.56C41.56 72.56 43.96 73.56 47.24 73.56C47.4 73.56 47.48 73.8 47.48 74.28C47.48 74.76 47.4 75 47.24 75C45.56 75 43.84 74.96 42.08 74.88C40.4 74.8 38.48 74.76 36.32 74.76C34.24 74.76 32.2 74.8 30.2 74.88C28.2 74.96 26.32 75 24.56 75C24.4 75 24.32 74.76 24.32 74.28C24.32 73.8 24.4 73.56 24.56 73.56C28.08 73.56 30.64 72.56 32.24 70.56C33.84 68.56 34.64 65.48 34.64 61.32ZM95.36 76.56C95.36 76.72 95.16 76.8 94.76 76.8C94.44 76.88 94.2 76.88 94.04 76.8L37.52 9.83999C34.72 6.55999 32.28 4.35999 30.2 3.23999C28.2 2.04 26.2 1.44 24.2 1.44C24.04 1.44 23.96 1.2 23.96 0.719998C23.96 0.239999 24.04 0 24.2 0C25.72 0 27.24 0.0399995 28.76 0.119998C30.28 0.199997 31.68 0.239997 32.96 0.239997C34.88 0.239997 36.64 0.199997 38.24 0.119998C39.84 0.0399995 41.04 0 41.84 0C42.88 0 43.64 0.479999 44.12 1.44C44.6 2.31999 45.76 3.91999 47.6 6.24L94.4 62.64L95.36 76.56ZM95.36 13.8V76.56L92.36 72.84V13.8C92.36 9.64 91.6 6.56 90.08 4.56C88.64 2.48 86.28 1.44 83 1.44C82.84 1.44 82.76 1.2 82.76 0.719998C82.76 0.239999 82.84 0 83 0C84.68 0 86.4 0.079999 88.16 0.239997C89.92 0.319996 91.84 0.359995 93.92 0.359995C95.92 0.359995 97.88 0.319996 99.8 0.239997C101.72 0.079999 103.52 0 105.2 0C105.36 0 105.44 0.239999 105.44 0.719998C105.44 1.2 105.36 1.44 105.2 1.44C101.84 1.44 99.36 2.48 97.76 4.56C96.16 6.56 95.36 9.64 95.36 13.8Z" fill="#1ABACC"/>
</svg>
